<svg xmlns="http://www.w3.org/2000/svg" width="265.1" height="246.4" xml:space="preserve" overflow="visible"><path fill='#ffffff' d="M195 189.3c7.6 0 14.8-3 20.1-8.3 11.1-11.1 11.1-29.2 0-40.3-1.5-1.5-3.8-1.5-5.3 0s-1.5 3.8 0 5.3c8.2 8.2 8.2 21.5 0 29.7-4 4-9.2 6.1-14.8 6.1-5.6 0-10.9-2.2-14.8-6.1-1.5-1.5-3.8-1.5-5.3 0s-1.5 3.8 0 5.3c5.3 5.3 12.5 8.3 20.1 8.3zm63.3-24.8c-7.1-21-6.8-38.4-6.8-38.4L258.3 8c.2-4.1-2.9-7.7-7.1-7.9-4.1-.2-7.7 2.9-7.9 7.1l-6.8 118.4c0 .8-.5 20.2 7.6 43.9 5.7 16.6 9.3 40 1 51-4.1 5.4-11 7.7-21.2 7.1-45.7-2.7-75-3.1-108.3 2.1-30.6 4.8-51.3-1.2-51.4-1.3l-1.9-.6-1.9.4c-6.5 1.4-25.6 3.4-36.2-3.7-11.9-7.9-9.2-19-8.1-22.2.7-2.2 1.1-3.1 11.1-.6l1.6.4c7.4 1.9 23.9 2.1 28.7-1l.4-.3c11.4-7.6 50.5-33.6 75.8-46.7 30.1-15.6 31.6-30.3 31.4-34.3L163.3 7.4c-.1-4.1-3.4-7.4-7.5-7.4h-.1c-4.1.1-7.4 3.5-7.4 7.6l1.8 112.5.1.8c0 .1-2.1 8.7-23.3 19.7-25.7 13.3-64.7 39.1-76.8 47.3-2.9.5-11.8 1-17.5-.5l-1.5-.4c-7.6-1.9-23.4-6-29 10.2-5.2 15 .3 30.5 13.9 39.6 15.6 10.4 39 7.4 45.8 6.3 4.2 1 15 3.3 30.4 3.3 7.6 0 16.3-.5 25.9-2 31.9-5 60.4-4.6 105.1-2 15.4.9 26.8-3.5 34.1-13 14.3-19.2 5.5-51.8 1-64.9z"/></svg>