<svg xmlns="http://www.w3.org/2000/svg" width="180.3" height="264.9" xml:space="preserve" overflow="visible"><path fill='#ffffff' d="M164.1 32C143.9 5.7 108.4-5.3 69.2 2.4c-25 4.9-43.6 16.4-55.3 34.2C-6.2 67 1.3 104.3 1.7 105.8c.9 4 4.8 6.6 8.9 5.8 4-.8 6.6-4.8 5.8-8.9-.1-.3-6.6-32.9 10-57.9 9.5-14.3 24.8-23.6 45.7-27.7 34-6.7 63.3 2 80.1 24 15.7 20.4 17.3 48.4 4.4 74.8-13.2 27-21.8 42.4-28.2 53.7-8.2 14.6-13.2 23.4-19.6 42.2-9.8 28.4-23.7 39.8-46.4 38-6.4-.5-15.8-4.5-22.2-12.3-4.9-5.9-7-12.7-6.2-20.1.4-4.1-2.5-7.8-6.7-8.3-4.1-.4-7.8 2.5-8.3 6.7-1.2 11.4 2.1 22.2 9.6 31.3 8.1 9.8 20.9 16.7 32.6 17.7 2 .2 4 .2 5.9.2 26.8 0 44.6-15.5 55.9-48.3 6-17.4 10.4-25.3 18.5-39.7 6.4-11.4 15.2-27.1 28.6-54.4 15.5-31.8 13.2-65.6-6-90.6zm-34.6 83.6c1.9.7 4.1-.3 4.8-2.2 12.2-32.5 4.9-50.9-3.3-60.7-11.6-13.7-32.9-19-56.9-14.3C35 46.1 39.6 91.3 39.9 94.1c.2 1.9 2.4 21.5 26.8 33.3.5.3 1.1.4 1.6.4 1.4 0 2.7-.8 3.4-2.1.9-1.9.1-4.1-1.7-5-21-10.1-22.5-26.5-22.6-27.4-.1-.5-.6-5.1-.2-11.2 3.5 5.8 9.9 10.2 19.3 13 21.3 6.5 25.9 14.3 25.9 14.3.7 1.3 2 2.1 3.4 2.1.6 0 1.1-.1 1.7-.4 1.9-.9 2.6-3.2 1.7-5-.5-1.1-5.9-10.6-30.4-18.1-9.1-2.8-14.6-7-16.4-12.5-2.8-8.8 4.5-19 5.5-20.3 4.2-4.3 9.9-7.7 17.8-9.3 21.3-4.2 39.9.2 49.7 11.9 9.9 11.7 10.6 30.1 2 53.2-.9 1.7.1 3.9 2.1 4.6zm-85.9 51.1c4.7 6.7 5.4 14.8 3.7 19.1-.8 2.1-.4 4.4 1.1 6.1 1.7 1.9 4.7 3 8 3 1.3 0 2.7-.2 4.1-.5 3.4-.9 11.5-4.2 14.2-16.4 3-13.9 13.4-12.6 14.5-12.4l1 .2.9-.3c.8-.3 20.3-7.3 13.4-46.5-.4-2-2.3-3.4-4.3-3-2 .4-3.4 2.3-3 4.3 4.9 28.3-5.2 36.2-7.8 37.8-6.8-.7-18.5 2.3-22 18.3-1.6 7.3-5.6 9.7-7.9 10.5-1.1.4-2.1.5-2.9.5 6.6-9.6 9.1-17.7 6.3-25.5-3.7-10-11.7-12.4-16.5-12.9.3-5.8 2.4-10.4 2.4-10.5.9-1.9.1-4.1-1.8-5-1.9-.9-4.1-.1-5 1.8-.6.7-8.3 17.4 1.6 31.4z"/></svg>