<svg xmlns="http://www.w3.org/2000/svg" width="265" height="240.2" xml:space="preserve" overflow="visible"><path fill='#ffffff' d="M90.3 209.2c-2.9.7-5.3 1.1-7 1.4-1.7-3.4-3.7-8.7-4.4-10.9-.7-2-2.8-3-4.8-2.3-2 .7-3 2.8-2.3 4.8.4 1.1 3.6 10.4 6.3 14.5.7 1.1 1.9 1.7 3.1 1.7h.2c.2 0 4.4-.3 10.6-1.8 2-.5 3.2-2.5 2.7-4.5-.3-2.2-2.4-3.4-4.4-2.9zM84.6 68c13.9 22.4 32.1 55.4 30 82.2-.3 4.1 2.8 7.7 6.9 8.1h.6c3.9 0 7.2-3 7.5-6.9.5-6.3.1-12.7-.9-19.1 8.1-3.6 29.7-14.8 52.7-40.2 25.6-28.3 55.6-37 55.9-37 4-1.1 6.3-5.2 5.2-9.2-1.1-4-5.2-6.3-9.2-5.2-1.4.4-34.3 9.8-63 41.4-18.8 20.8-36.7 31.2-45 35.3-6.1-20.3-17.4-40.4-27.8-57.2-14.7-23.6-21-53.9-21-54.2-.8-4.1-4.8-6.7-8.8-5.9-4.1.9-6.8 4.8-5.9 8.9.2 1.3 6.8 33.2 22.8 59zm179.3 86.8c-2.1-3.5-6.8-4.7-10.3-2.5-35.5 21.5-77.1 42-114.2 56.3-37.8 14.6-58.4 17.8-62.8 16.4-6.2-5-16.5-30.4-22.6-51.5v-.5C43.1 142.3 15.1 19.5 14.8 18.3c-.9-4-4.9-6.6-9-5.6-4 .9-6.6 4.9-5.6 9 1.1 5 28.3 124.3 39.5 156.1 2.5 8.8 14.9 49.8 28.4 59.5 1.4 1 3.9 2.8 11.2 2.8 9.7 0 27.7-3.3 62.3-16.4 38.6-14.6 82.3-36 119.7-58.6 3.6-2.2 4.8-6.8 2.6-10.3z"/></svg>