<svg xmlns="http://www.w3.org/2000/svg" width="266.2" height="175.3" xml:space="preserve" overflow="visible"><path fill='#ffffff' d="M265 84.8C244.4 34.1 191.4 0 133.1 0 74.8 0 21.8 34.1 1.1 84.8L0 87.7l1.1 2.8c20.6 50.7 73.7 84.8 131.9 84.8 58.3 0 111.3-34.1 131.9-84.8l1.1-2.8-1-2.9zM16.2 87.7C30.7 54.6 61 29.9 97.1 19.9 72.9 32.8 56.4 58.3 56.4 87.7c0 29.3 16.6 54.9 40.8 67.8-36.1-10.1-66.4-34.8-81-67.8zm47.7 0c0-38.2 31-69.2 69.2-69.2s69.2 31 69.2 69.2-31.1 69.2-69.2 69.2c-38.2 0-69.2-31.1-69.2-69.2zM169 155.4c24.2-12.9 40.8-38.4 40.8-67.8 0-29.3-16.6-54.9-40.8-67.8 36.1 10 66.4 34.7 80.9 67.8-14.5 33.1-44.8 57.8-80.9 67.8zm-8-75.2c-9.9 0-17.9-8-17.9-17.9 0-3.6 1.1-7 2.9-9.8-4-1.5-8.4-2.3-12.9-2.3-20.7 0-37.5 16.8-37.5 37.5s16.8 37.5 37.5 37.5 37.5-16.8 37.5-37.5c0-3.3-.5-6.4-1.3-9.5-2.4 1.3-5.3 2-8.3 2z"/></svg>