<svg xmlns="http://www.w3.org/2000/svg" width="200.5" height="265" xml:space="preserve" overflow="visible"><path fill='#ffffff' d="M200 107.1c-1.5-6.1-6-10.7-12.4-12.6-3.4-1-15.7-3.8-29 3.8-7.9 4.5-14.4 11.6-19.5 21.3v-77c0-12.4-10.1-22.5-22.5-22.5-3.1 0-6.1.6-8.8 1.8C107.4 9.8 97.4 0 85.2 0 72.8 0 62.7 10.1 62.7 22.5v3.9c-2.7-1.1-5.7-1.8-8.8-1.8-12 0-21.9 9.5-22.5 21.4-2.7-1.2-5.8-1.9-9-1.9C10.1 44.1 0 54.2 0 66.5v151.7l6.9 25.7-.2 13.5c0 4.1 3.3 7.5 7.4 7.6h.1c4.1 0 7.4-3.3 7.5-7.4l.1-9.3c7 1.2 17.7 2.6 28.9 2.6 1.9 0 3.8 0 5.6-.1 2.1-.1 3.7-1.8 3.6-3.9-.1-2.1-1.8-3.6-3.9-3.6-13.2.6-26.8-1.3-34.5-2.6L15 216.3V66.5c0-4.1 3.3-7.4 7.4-7.4s7.4 3.3 7.4 7.4v55c0 4.1 3.4 7.5 7.5 7.5h.4c.3 0 .7.1 1 .1 4.1 0 7.5-3.4 7.5-7.5V47.2c0-4.2 3.4-7.5 7.5-7.5 4.2 0 7.5 3.4 7.5 7.5v74.5c0 4.1 3.4 7.5 7.5 7.5.2 0 .4 0 .6-.1.2 0 .4.1.6.1 4.1 0 7.5-3.4 7.5-7.5V22.5c0-4.2 3.4-7.5 7.5-7.5 4.2 0 7.5 3.4 7.5 7.5v99.1c0 4.1 3.4 7.5 7.5 7.5.2 0 .4 0 .6-.1.2 0 .4.1.6.1 4.1 0 7.5-3.4 7.5-7.5v-79c0-4.2 3.4-7.5 7.5-7.5 4.2 0 7.5 3.4 7.5 7.5v79.8l3.7 15.7H48.2c-2.1 0-3.7 1.7-3.7 3.8s1.7 3.8 3.7 3.8h81.3l.3 1.5c-14.8 4.6-49.1 19.7-49.8 61.6 0 2.1 1.6 3.8 3.7 3.8h.1c2 0 3.7-1.6 3.7-3.7.7-43.3 41.2-54.2 49-55.9.2 0 .4.1.6.1.6 0 1.1-.1 1.7-.2 2.2-.5 3.9-2 4.9-3.8.8-.9 1.4-1.9 1.7-3.2 4.3-16.9 11.3-28.5 20.5-33.7 8.3-4.7 15.9-2.9 17.3-2.4 1.8.5 2 1.4 2.1 1.8 0 .1 0 .3.1.4-.2 1.7-1.3 4.3-4.2 7.2-17.8 17.4-28.6 61.7-30.8 71.5l-42.7 51.7c-3.8.5-8.3 1-11.4 1h-.6c-2 0-3.7 1.6-3.7 3.7s1.6 3.8 3.7 3.8h.6c3.3 0 7.7-.4 11.5-.9v7.6c0 4.1 3.4 7.5 7.5 7.5s7.5-3.4 7.5-7.5v-9l41.6-50.4.4-1.8c2.9-13.8 13.4-52.4 27-65.7 5.9-5.7 8.9-12.4 8.8-18.8-.1-1.6-.3-3.2-.6-4.8zM29.6 160.4c-1.9-.9-4.1-.1-5 1.8-.9 1.9-.1 4.1 1.8 5 .2.1 21.3 10.6 26.1 42.3.3 1.9 1.9 3.2 3.7 3.2h.6c2-.3 3.5-2.2 3.1-4.3-5.4-35.6-29.3-47.5-30.3-48z"/></svg>