<svg xmlns="http://www.w3.org/2000/svg" width="201.4" height="116.5" xml:space="preserve" overflow="visible"><path fill='#ffffff' d="M179.9 80.8c3.2 9 5.4 21 6.5 35.7h15.1c-1.1-15.7-3.5-29.7-7.5-40.8-7.7-21.2-9.2-40.5-9.2-40.5-.2-4.2 0-17 3.1-24.9 1.5-3.9-.4-8.2-4.3-9.7s-8.2.4-9.7 4.3c-4.9 12.5-4.2 30.3-4.1 31.2.1.8 1.7 21.4 10.1 44.7zM131.5 116.5l7.6-9.9c1.3-1.6 1-4-.7-5.3-1.6-1.3-4-1-5.3.7L122 116.5h9.5zM68.6 116.5h9.3l-10.4-14.4c-1.2-1.7-3.6-2.1-5.2-.8-1.7 1.2-2.1 3.6-.8 5.2l7.1 10zM7.5 75.7c-4 11.1-6.3 25.2-7.5 40.8h15.1c1.1-14.7 3.3-26.7 6.5-35.7 8.4-23.3 10-43.9 10.1-45 0-.7.7-18.5-4.1-31C26 .9 21.6-1 17.8.5 13.9 2 12 6.4 13.5 10.2c3.1 8 3.3 20.7 3.1 24.7 0 .2-1.5 19.5-9.1 40.8zM98.5 52.9c2.7 0 4.9-2.8 4.9-6.2s-2.2-6.2-4.9-6.2-4.9 2.8-4.9 6.2 2.2 6.2 4.9 6.2z"/></svg>