<svg xmlns="http://www.w3.org/2000/svg" width="192.7" height="265" xml:space="preserve" overflow="visible"><path fill='#ffffff' d="M45.4 146c-.1.2-2.7 4.5-9.2 6.8-2 .7-3 2.8-2.3 4.8.5 1.5 2 2.5 3.5 2.5.4 0 .8-.1 1.2-.2 9.3-3.2 13.1-9.9 13.3-10.2 1-1.8.4-4-1.4-5.1-1.8-1-4.1-.4-5.1 1.4zm-23.8 14c-14.4-30.2-.7-41.1-.2-41.4l.6-.5C66.2 80.4 169.3 14.5 170.3 13.8c3.5-2.2 4.5-6.9 2.3-10.4s-6.9-4.5-10.4-2.3C158 3.9 57.5 68.1 12.4 106.6c-3.4 2.6-23.3 20.3-4.3 59.9 15.9 33.2 31.9 92.4 32 93 .9 3.3 3.9 5.6 7.2 5.6.6 0 1.3-.1 1.9-.3 4-1.1 6.4-5.2 5.3-9.2-.6-2.5-16.4-61.2-32.9-95.6zm170.7-29.7c-1.2-4-5.4-6.2-9.4-4.9-2.4.8-59.7 18.7-87.7 31-.1 0-.2.1-.3.2-.2.1-.5.2-.7.4-.2.1-.4.3-.6.4-.2.2-.4.3-.6.5l-.5.5c-.2.2-.3.4-.4.6-.1.2-.3.4-.4.6l-.3.6c-.1.2-.2.4-.3.7-.1.2-.1.5-.2.7-.1.2-.1.5-.1.7 0 .2-.1.5-.1.7v.7c0 .2 0 .5.1.7 0 .3.1.5.2.8 0 .1 0 .2.1.3.3 1 2.2 6.2 9.4 15.7 19.9 26.3 23.9 76.3 23.9 76.8.3 3.9 3.6 6.9 7.5 6.9h.6c4.1-.3 7.2-3.9 6.9-8-.2-2.2-4.3-54.9-26.9-84.7-1.5-2-2.7-3.7-3.7-5.2 29.1-11.8 78.1-27.1 78.6-27.3 4-1.3 6.2-5.5 4.9-9.4z"/></svg>