<svg xmlns="http://www.w3.org/2000/svg" width="290" height="264.9" xml:space="preserve" overflow="visible"><path fill='#ffffff' d="M268.6 44.6c-59.9-52.1-88-48-111.6-39.5-2.9 1.1-5.4 2-7.5 2.3-1.5.3-3 .4-4.5.4s-3.1-.2-4.5-.4c-2.1-.4-4.6-1.3-7.5-2.3C109.4-3.4 81.3-7.4 21.4 44.6c-1 .9-24.3 21.1-21.1 44.2.3 1.9 1.3 3.7 2.8 4.8 1.5 10.4 9.5 46.4 50.2 75.1v4.8c0 50.4 41.1 91.3 91.7 91.3s91.7-41 91.7-91.3V169c46.5-32 50.3-72.9 50.5-75.7 1.3-1.2 2.2-2.8 2.5-4.6 3.1-23-20.1-43.3-21.1-44.1zm-52.7 26.1-2.1-7.1c-1.6 4.5-4 8-6.9 9.4-3.4 1.6-15.5 1.9-15.5 1.9-1.6-1.5-3.9-4.8-5.6-7.5v.9c0 5-4.1 9.1-9.1 9.1h-24.4c-3.6 0-6.8-2.2-8.2-5.3-1.5 3.1-4.6 5.3-8.2 5.3h-24.4c-5 0-9.1-4.1-9.1-9.1v-.9c-1.7 2.7-4 6.1-5.6 7.5 0 0-12.1-.2-15.5-1.9-2.9-1.4-5.3-4.9-6.9-9.4l-2.1 7.1s-6.8 2.1-14.4-3.7c17.7-5.8 40.1-8.9 66.6-3.8.3.1 8.4 1.6 19.6 1h1.9c11.2.6 19.2-1 19.5-1 25.9-5 47.9-2.1 65.3 3.4-7.8 6.3-14.9 4.1-14.9 4.1zM31.2 55.9c58.2-50.6 81.3-42.2 96.6-36.7 3.4 1.2 6.7 2.4 10.1 3 2.3.4 4.6.6 7 .6h.2c2.4 0 4.7-.2 7-.6 3.4-.6 6.6-1.8 10.1-3 15.3-5.6 38.4-13.9 96.7 36.7.1.1 5.8 5.2 10.5 12.3-16.2-10.4-42.7-22.6-77.3-22.6-9.2 0-19 .9-29.3 2.8-.1 0-6.8 1.3-16.1.8H143.6c-9.3.5-16-.7-16.1-.8C78.3 39 41.5 55 20.9 68.2c3.4-5.5 7.8-10.1 10.3-12.3zM19.3 98.4c6.6 9.2 17.9 22.5 34 31.4v20c-22.8-19-31.1-39.9-34-51.4zm202.4 75.2c0 42.1-34.4 76.3-76.7 76.3-42.3 0-76.7-34.2-76.7-76.3v-76c0-2.6-1.4-4.9-3.4-6.3 9.8-3.1 36.8-9.2 76.4.5v97.9c0 2.1 1.7 3.8 3.8 3.8 2.1 0 3.8-1.7 3.8-3.8V91.4c40.4-9.6 67.4-2.6 75.9.3-1.8 1.4-2.9 3.5-2.9 5.9v76zm15-23.3v-21.5c18.1-10.7 29.9-26.6 35.4-35.1-.9 6.5-6.4 32.9-35.4 56.6z"/></svg>