<svg xmlns="http://www.w3.org/2000/svg" width="250.3" height="250" xml:space="preserve" overflow="visible"><path fill='#ffffff' d="M45.2 225.4c-.3-.1-33.7-10.6-29.9-37.4 1.9-13.3 10.3-25.8 22.4-40.5C57.5 123.6 67 75 67.4 72.9c.8-4.1-1.9-8-5.9-8.8-4.1-.8-8 1.9-8.8 5.9-.1.5-9.2 46.9-26.5 67.9-11.9 14.4-23.3 30.2-25.7 48-4.4 31.5 24.5 49 40.4 53.8.7.2 1.5.3 2.2.3 3.2 0 6.2-2.1 7.2-5.3 1.1-3.9-1.1-8-5.1-9.3zm80.9-11c23.2 0 42.6-20.7 43.4-21.5 1.4-1.5 1.3-3.9-.2-5.3s-3.9-1.3-5.3.2c-.2.2-18 19.1-37.9 19.1-11.1 0-26-6.7-33.9-15.3-3.3-3.6-5-7.3-4.8-10.2 1.1-13 5.3-30.8 5.3-31 .5-2-.8-4-2.8-4.5-2-.5-4 .8-4.5 2.8-.2.7-4.3 18.4-5.5 32-.4 5.1 1.9 10.6 6.7 15.9 9.3 10.1 26.2 17.8 39.5 17.8zM249.9 186c-2.1-15-10.1-29.9-25.8-48.1-24-27.7-34.4-109.9-35.3-130.7-.2-4.1-3.7-7.4-7.8-7.2-4.1.2-7.4 3.7-7.2 7.8.7 16.4 10 106.6 38.8 139.9 13.8 15.9 20.7 28.4 22.3 40.4 3.7 26.6-28.6 37-29.9 37.4-4 1.2-6.2 5.4-5 9.4 1 3.2 4 5.3 7.2 5.3.7 0 1.5-.1 2.2-.3 15.9-4.9 44.8-22.4 40.5-53.9zm-48.4 28.7c1.9 3.7 6.4 5.2 10.1 3.3 3.7-1.9 5.2-6.4 3.3-10.1-1.8-3.5-4.9-8.3-11.8-10-7.3-1.8-18-.6-41.8 22-11.7 11.1-26.4 15.1-36.1 15.1-9.8 0-24.4-4-36.2-15.1-23.8-22.7-34.5-23.9-41.8-22-6.9 1.7-10 6.6-11.8 10-1.9 3.7-.4 8.2 3.3 10.1 3.7 1.9 8.2.4 10.1-3.3 1-2 1.4-2.1 2.1-2.2 1.6-.4 8.3-.2 27.9 18.4C97.4 248.6 119 250 125.2 250c6.2 0 27.7-1.4 46.5-19.2 19.6-18.6 26.3-18.7 27.9-18.4.5.2.9.3 1.9 2.3z"/></svg>