<svg xmlns="http://www.w3.org/2000/svg" width="63.2" height="145.1" xml:space="preserve" overflow="visible"><path fill='#ffffff' d="M0 16.1c1.1 1 2.2 2.1 3.2 3.2 1.2 1.3 3 2 4.8 1.9.3 0 25.6-.8 33.1 14.5 9.5 19.6 1 32.9.7 33.4-.3.5-.6 1-.8 1.5-2.1 3-5.2 7.3-7.8 11-2.8-3.2-5.6-4.5-6.9-4.6-2.1-.2-3.9 1.3-4.1 3.4-.2 1.9 1.1 3.6 2.9 4 .8.4 8.3 5.1 7.9 24.3 0 2.1 1.6 3.8 3.7 3.8h.1c2 0 3.7-1.6 3.7-3.7.2-9-1.2-15.5-3.2-20.3 1.8-2.4 4-5.6 6.1-8.5 1.5 3.6 3.2 8.3 3.2 11.5 0 4.7-.3 12.6-.6 17.8l-4.9 10.1c-.9 1.9-.1 4.1 1.8 5 .5.3 1.1.4 1.6.4 1.1 0 2.1-.5 2.8-1.3l2.6 13.5c.1.9.3 3.8.6 8.1H63c-.3-5.5-.6-9-.7-9.6 0-.2 0-.4-.1-.6l-4-20.6c.2-3.3.8-15.9.8-22.8 0-6.6-3.2-14.5-5.2-18.8 3.1-6.6 8.2-22.4-1.6-42.5-9.3-19-33.6-21.3-42-21.5C7.1 5.6 3.6 2.7 0 0v16.1zM9.3 58.2c-2.1.1-3.7 1.8-3.6 3.9.1 4.6-1.9 9.9-5.7 14.8v61.3c.5-1.9 1.2-4 2-6.4 1.8 3.9 4.3 8.3 7.5 13.2h16.9c-1.6-1.5-3.2-2.8-4.3-3.7-8.5-11.9-11.6-21.1-13-25.6-.3-1-.7-2.2-1.3-3.3-2.4-11.6-2-21-1.3-26.8 1.3-3.6 7.5-3.8 7.7-3.8 2.1 0 3.7-1.7 3.7-3.8 0-2.1-1.7-3.8-3.8-3.8-1.2 0-2.6.2-4.1.5 2.2-4.4 3.3-8.9 3.2-13.1-.1-1.9-1.8-3.6-3.9-3.4z"/></svg>