<svg xmlns="http://www.w3.org/2000/svg" width="190.6" height="168.9" xml:space="preserve" overflow="visible"><path fill='#ffffff' d="M56 111.3c-13.2.6-26.8-1.3-34.5-2.6L15 84.4V0H0v86.4l6.9 25.7v2.6c-.4.9-.7 1.9-.7 3-.1 2.5-1.3 24.6.8 35.2.5 2.8 2.5 5.1 5.1 6.2.1.1.3.1.4.2.4.1 9.3 3.1 23.5 5.2 4.6.7 8.8-2.5 9.5-7.1.7-4.6-2.5-8.8-7.1-9.5-6.7-1-12-2.1-15.5-3.1-.6-8.5-.2-21.2.1-26.2 0-.7 0-1.4-.1-2 7 1.1 17.3 2.4 28 2.4 1.9 0 3.8 0 5.6-.1 2.1-.1 3.7-1.8 3.6-3.9-.3-2.1-1.9-3.7-4.1-3.7zM87.6 77.1c.7-43.3 41.2-54.2 49-55.9.2 0 .4.1.6.1.6 0 1.1-.1 1.7-.2 2.2-.5 3.9-2 4.9-3.8.8-.9 1.4-1.9 1.7-3.2 1.3-5.2 2.9-9.9 4.7-14.1h-24l1.5 6.3H48.2c-2.1 0-3.8 1.7-3.8 3.8 0 2.1 1.7 3.8 3.8 3.8h81.3l.3 1.5C115 19.9 80.8 35.1 80.1 77c0 2.1 1.6 3.8 3.7 3.8h.1c2 0 3.6-1.7 3.7-3.7zM171.7 0c-12.1 20.6-19.4 50.9-21.2 58.7l-42.7 51.7c-3.8.5-8.3 1-11.4 1h-.6c-2 0-3.7 1.6-3.7 3.7s1.6 3.8 3.7 3.8h.6c3.3 0 7.7-.4 11.5-.9v.5c-.7 1.3-1.1 2.8-1 4.4.3 5.1.7 17.8.1 26.2-3.5.9-8.9 2.1-15.5 3.1-4.6.7-7.8 4.9-7.1 9.5.7 4.6 4.9 7.8 9.5 7.1 14.2-2 23.1-5.1 23.5-5.2.1-.1.3-.1.4-.2 2.6-1.1 4.5-3.4 5.1-6.2 2.1-10.6.9-32.8.8-35.2-.1-1.1-.3-2-.7-3v-2.4l41.6-50.4.4-1.8c2.8-13.4 12.8-50.2 25.8-64.5h-19.1z"/></svg>